<?xml version="1.0" standalone="no"?>
<!DOCTYPE svg PUBLIC "-//W3C//DTD SVG 20010904//EN"
 "http://www.w3.org/TR/2001/REC-SVG-20010904/DTD/svg10.dtd">
<svg version="1.0" xmlns="http://www.w3.org/2000/svg"
 width="256.000000pt" height="256.000000pt" viewBox="0 0 256.000000 256.000000"
 preserveAspectRatio="xMidYMid meet">
<metadata>
Created by potrace 1.14, written by Peter Selinger 2001-2017
</metadata>
<g transform="translate(0.000000,256.000000) scale(0.100000,-0.100000)"
fill="#000000" stroke="none">
<path d="M1330 2350 c0 -3 -21 -22 -47 -42 -42 -31 -60 -37 -143 -48 -52 -7
-104 -14 -115 -16 -11 -2 -40 -7 -65 -10 -49 -6 -97 -38 -132 -85 -38 -51 -68
-35 -83 44 -10 51 -31 54 -176 27 -87 -16 -127 -28 -144 -44 -15 -14 -36 -60
-59 -136 -43 -138 -44 -140 -52 -249 -3 -47 -7 -88 -7 -91 -4 -26 30 -171 55
-232 37 -94 79 -156 138 -201 43 -32 165 -87 194 -87 25 0 41 -25 41 -66 0
-38 -1 -39 -30 -34 -48 8 -137 4 -181 -9 -60 -16 -105 -50 -129 -98 -17 -34
-33 -49 -81 -72 -164 -83 -277 -282 -229 -407 22 -59 111 -140 162 -148 65
-10 110 -4 169 24 l56 27 56 -17 c66 -21 177 -19 238 3 38 14 42 14 57 -3 60
-70 148 -91 223 -52 l40 21 35 -32 c99 -90 132 -117 143 -118 6 0 20 -2 31 -4
18 -4 94 21 510 165 66 22 127 43 135 45 33 8 525 177 530 182 3 2 5 31 6 64
1 42 -4 65 -16 79 -14 16 -17 43 -17 169 -1 117 2 153 13 162 8 6 14 26 14 45
0 30 -7 37 -82 88 -46 30 -96 66 -111 80 -16 14 -34 27 -40 29 -6 2 -7 9 -3
16 6 9 11 8 21 -6 7 -10 17 -15 21 -10 4 4 2 7 -5 7 -7 0 -9 5 -6 10 3 6 1 11
-4 11 -6 1 -15 2 -20 3 -6 0 -16 7 -23 15 -11 12 -10 13 7 7 16 -6 17 -5 8 5
-10 9 -15 10 -27 0 -8 -7 -17 -8 -20 -3 -3 6 1 12 9 16 8 3 15 11 15 18 0 9
-3 9 -10 -2 -8 -12 -10 -12 -16 3 -3 9 -11 17 -17 17 -6 0 -7 -3 -4 -7 4 -3 1
-13 -6 -22 -10 -14 -10 -14 5 -3 15 12 17 11 15 -7 -1 -12 -4 -21 -7 -21 -9 1
-41 28 -41 34 3 20 0 26 -8 21 -5 -3 -12 -1 -16 4 -3 6 -13 7 -22 4 -13 -5
-13 -3 3 14 22 22 36 21 27 -4 -4 -10 -2 -14 5 -9 6 3 15 -2 21 -11 6 -10 11
-14 11 -9 0 5 -11 24 -25 41 -13 18 -21 36 -17 39 3 4 -1 4 -11 0 -9 -3 -17
-2 -17 4 0 6 6 13 13 15 9 4 9 6 0 6 -19 2 -27 -21 -11 -33 16 -12 13 -36 -4
-36 -6 0 -8 3 -5 7 4 3 -3 17 -15 30 -12 13 -17 23 -11 23 6 0 14 7 17 16 5
13 4 14 -7 6 -8 -7 -18 -8 -22 -4 -5 4 -5 1 -1 -5 7 -12 -6 -18 -28 -14 -5 1
-13 -4 -17 -11 -7 -10 -9 -10 -9 0 0 6 -7 12 -16 12 -10 0 -14 5 -10 15 13 33
16 50 6 30 -8 -15 -21 -21 -46 -21 -29 0 -36 4 -41 26 -4 14 -6 31 -4 39 1 7
-2 10 -8 6 -13 -7 -15 6 -3 21 4 5 6 8 3 7 -8 -5 -32 27 -26 36 3 5 1 12 -4
15 -5 3 -12 18 -15 33 -11 45 -156 497 -165 513 -5 9 -3 19 7 26 8 6 16 28 17
49 5 75 13 72 -176 72 -93 0 -169 -3 -169 -7z m725 -890 c10 -11 12 -20 6 -24
-11 -7 -48 13 -55 29 -7 18 31 15 49 -5z m163 -126 c7 -8 8 -15 2 -19 -6 -3
-10 -1 -10 4 0 6 -7 11 -15 11 -8 0 -15 4 -15 8 0 13 24 10 38 -4z"/>
<path d="M2030 1461 c0 -5 5 -13 10 -16 6 -3 10 -2 10 4 0 5 -4 13 -10 16 -5
3 -10 2 -10 -4z"/>
<path d="M1859 1953 c-11 -12 -10 -17 4 -25 10 -5 15 -13 12 -18 -3 -4 4 -6
16 -3 13 4 18 11 14 20 -4 11 0 14 12 9 17 -6 17 -5 1 7 -10 8 -16 16 -13 18
2 3 -4 5 -15 6 -10 1 -24 -5 -31 -14z"/>
<path d="M1890 1653 c0 -12 4 -24 9 -28 6 -3 8 -14 6 -24 -2 -12 2 -18 12 -17
9 1 17 -9 19 -24 4 -24 3 -24 -11 -6 -8 11 -15 15 -15 9 0 -13 29 -38 32 -27
0 5 2 14 3 19 2 6 3 14 4 19 0 5 8 3 16 -4 9 -7 18 -10 22 -6 3 3 1 6 -6 6 -7
0 -9 5 -5 12 5 8 0 9 -15 5 -15 -4 -24 1 -33 16 -10 19 -9 20 3 10 12 -10 15
-7 17 17 1 16 -3 32 -10 36 -8 5 -9 2 -4 -11 5 -15 4 -16 -9 -5 -8 7 -15 9
-15 4 0 -5 -5 -2 -10 6 -8 12 -10 11 -10 -7z"/>
<path d="M1876 1625 c4 -8 11 -15 16 -15 6 0 5 6 -2 15 -7 8 -14 15 -16 15 -2
0 -1 -7 2 -15z"/>
<path d="M2039 1563 c0 -5 -2 -16 -4 -26 -2 -11 -1 -16 3 -13 8 8 14 46 7 46
-3 0 -5 -3 -6 -7z"/>
<path d="M1888 1543 c6 -2 9 -10 6 -15 -4 -7 -2 -8 5 -4 13 9 5 26 -12 25 -9
0 -8 -2 1 -6z"/>
<path d="M2093 1543 c4 -3 1 -13 -6 -22 -11 -14 -10 -14 5 -2 16 12 16 31 1
31 -4 0 -3 -3 0 -7z"/>
<path d="M1976 1515 c-3 -8 -1 -15 3 -15 5 0 11 7 15 15 3 8 1 15 -3 15 -5 0
-11 -7 -15 -15z"/>
<path d="M2315 1520 c3 -5 8 -10 11 -10 2 0 4 5 4 10 0 6 -5 10 -11 10 -5 0
-7 -4 -4 -10z"/>
<path d="M2215 1509 c-4 -6 -5 -12 -2 -15 2 -3 7 2 10 11 7 17 1 20 -8 4z"/>
<path d="M2130 1485 c-9 -11 -9 -15 -1 -15 7 0 9 -5 5 -12 -4 -7 -3 -10 1 -5
8 6 16 47 10 47 -2 0 -8 -7 -15 -15z"/>
<path d="M2170 1466 c0 -2 7 -7 16 -10 8 -3 12 -2 9 4 -6 10 -25 14 -25 6z"/>
<path d="M2150 1435 c0 -8 2 -15 4 -15 2 0 6 7 10 15 3 8 1 15 -4 15 -6 0 -10
-7 -10 -15z"/>
<path d="M2239 1433 c-12 -16 -12 -17 2 -6 9 7 20 9 24 5 5 -4 5 -1 1 6 -9 16
-11 15 -27 -5z"/>
<path d="M2195 1429 c-4 -6 -5 -12 -2 -15 2 -3 7 2 10 11 7 17 1 20 -8 4z"/>
<path d="M2224 1398 c15 -23 36 -30 36 -12 0 3 -5 2 -12 -2 -8 -5 -9 -2 -4 12
4 10 4 15 0 11 -4 -4 -14 -1 -22 6 -11 9 -11 5 2 -15z"/>
<path d="M2273 1355 c0 -8 4 -12 9 -9 4 3 8 9 8 15 0 5 -4 9 -8 9 -5 0 -9 -7
-9 -15z"/>
<path d="M2290 1330 c-9 -6 -10 -10 -3 -10 6 0 15 5 18 10 8 12 4 12 -15 0z"/>
<path d="M2280 1286 c0 -2 7 -9 15 -16 13 -11 14 -10 9 4 -5 14 -24 23 -24 12z"/>
</g>
</svg>
